# xmcd
# 
# Track frame offsets:
#     150
#     19237
#     40049
#     57599
#     75824
#     92120
#     106423
#     126260
#     145360
#     164006
#     175409
#     192233
#     202123
#     225824
#     257230
#     272011
# 
# Disc length: 3962
# 
# Revision: 0
# Processed by: cddbd v1.5.2PL0 Copyright (c) Steve Scherf et al.
# Submitted via: fre:ac v1.0.27
# 
DISCID=df0f7810
DTITLE=J.J. Cale - One Way Ticket [CD1)
DYEAR=2017
DGENRE=Blues
TTITLE0=Jam#1
TTITLE1=Jam#2
TTITLE2=Right Down Here
TTITLE3=Jam#3
TTITLE4=Hands Off Her
TTITLE5=Jam#4
TTITLE6=Jam#5
TTITLE7=Louisiana Woman
TTITLE8=Lies
TTITLE9=Nowhere To Run
TTITLE10=Got My Mojo Workin'
TTITLE11=Call Me the Breeze
TTITLE12=Woman I Love
TTITLE13=Bringing It Back
TTITLE14=Magnolia
TTITLE15=After Midnight
EXTD=
EXTT0=
EXTT1=
EXTT2=
EXTT3=
EXTT4=
EXTT5=
EXTT6=
EXTT7=
EXTT8=
EXTT9=
EXTT10=
EXTT11=
EXTT12=
EXTT13=
EXTT14=
EXTT15=
PLAYORDER=
